<svg width="72" height="28" viewBox="0 0 72 28" fill="none" xmlns="http://www.w3.org/2000/svg">
<path d="M14 28C21.732 28 28 21.732 28 14C28 6.26801 21.732 0 14 0C6.26801 0 0 6.26801 0 14C0 21.732 6.26801 28 14 28Z" fill="#0088CC"></path>
<path fill-rule="evenodd" clip-rule="evenodd" d="M10.1044 9.24902H17.9566C18.2344 9.24902 18.512 9.28982 18.8021 9.42507C19.1499 9.58712 19.3343 9.84267 19.4635 10.0316C19.4735 10.0463 19.4829 10.0615 19.4916 10.077C19.6435 10.3474 19.7218 10.6393 19.7218 10.9534C19.7218 11.2518 19.6508 11.5769 19.4916 11.8602C19.4901 11.8629 19.4886 11.8656 19.487 11.8683L14.5261 20.3901C14.4167 20.578 14.2154 20.6933 13.9979 20.6925C13.7805 20.6917 13.5799 20.575 13.4719 20.3863L8.60206 11.8827C8.60066 11.8805 8.59926 11.8781 8.59786 11.8758C8.48641 11.6922 8.31406 11.4082 8.28391 11.0416C8.25621 10.7046 8.33196 10.3669 8.50131 10.0741C8.67066 9.78127 8.92561 9.54717 9.23226 9.40387C9.56106 9.25022 9.89426 9.24902 10.1044 9.24902ZM13.3914 10.4664H10.1044C9.88846 10.4664 9.80556 10.4797 9.74761 10.5068C9.66746 10.5442 9.60016 10.6057 9.55516 10.6836C9.51016 10.7614 9.48981 10.8516 9.49721 10.9419C9.50146 10.9937 9.52256 11.0529 9.64701 11.2581C9.64961 11.2624 9.65216 11.2668 9.65466 11.2711L13.3914 17.7961V10.4664ZM14.6088 10.4664V17.8283L18.432 11.2608C18.4752 11.1824 18.5044 11.0691 18.5044 10.9534C18.5044 10.8595 18.485 10.778 18.4415 10.694C18.3958 10.6284 18.368 10.5936 18.3448 10.5698C18.3248 10.5495 18.3095 10.5386 18.2878 10.5285C18.1974 10.4863 18.1049 10.4664 17.9566 10.4664H14.6088Z" fill="white"></path>
<g clip-path="url(#logo_redesign_svg__clip0_14063_2232)">
<path d="M39.798 19.8207V10.6431H36.2656V8.18359H46.3842V10.6431H42.8517V19.8207H39.798Z" fill="#000">
</path><path d="M46.6797 13.9919C46.6797 12.7814 46.9159 11.7305 47.3895 10.8391C47.8625 9.93678 48.5392 9.23799 49.4198 8.74279C50.2998 8.2476 51.3397 8 52.5395 8C53.7496 8 54.7952 8.2476 55.6757 8.74279C56.5557 9.23799 57.2325 9.93678 57.706 10.8391C58.1899 11.7305 58.4323 12.7814 58.4323 13.9919C58.4323 15.1913 58.1899 16.2423 57.706 17.1446C57.2325 18.0469 56.5557 18.7513 55.6757 19.2574C54.7952 19.7526 53.7496 20.0002 52.5395 20.0002C51.3397 20.0002 50.2998 19.7526 49.4198 19.2574C48.5501 18.7513 47.8733 18.0469 47.3895 17.1446C46.9159 16.2423 46.6797 15.1913 46.6797 13.9919ZM49.8654 13.9919C49.8654 14.7182 49.9645 15.3399 50.1626 15.8571C50.3606 16.3743 50.6521 16.7705 51.0374 17.0456C51.4336 17.3207 51.9339 17.4582 52.5395 17.4582C53.4417 17.4582 54.1184 17.1556 54.5698 16.5504C55.0206 15.9341 55.2466 15.0813 55.2466 13.9919C55.2466 13.2656 55.1475 12.6438 54.9494 12.1266C54.7514 11.6094 54.4486 11.2188 54.0416 10.9547C53.6454 10.6796 53.1446 10.542 52.5395 10.542C51.6368 10.542 50.9657 10.8446 50.5257 11.4499C50.0852 12.0441 49.8654 12.8914 49.8654 13.9919Z" fill="currentColor"></path><path d="M60.2656 19.8207V8.18359H62.5105L68.4033 15.496H67.9246V8.18359H70.7473V19.8207H68.5024L62.6426 12.5083H63.1213V19.8207H60.2656Z" fill="currentColor"></path></g><defs><clipPath id="logo_redesign_svg__clip0_14063_2232"><rect width="36" height="12" fill="#fff" transform="translate(36 8)"></rect></clipPath></defs></svg>