<svg width="124" height="124" viewBox="0 0 124 124" fill="none" xmlns="http://www.w3.org/2000/svg">
<path fill-rule="evenodd" clip-rule="evenodd" d="M18.426 39.197c0-5.396 4.375-9.771 9.771-9.771h67.069c5.396 0 9.771 4.375 9.771 9.771v18.658h-11.94a12.369 12.369 0 1 0 0 24.737h11.94v2.656c0 5.396-4.375 9.77-9.771 9.77H28.197c-5.396 0-9.771-4.374-9.771-9.77V39.197zm9.771-17.623c-9.733 0-17.623 7.89-17.623 17.623v46.05c0 9.734 7.89 17.624 17.623 17.624h67.069c9.733 0 17.623-7.89 17.623-17.623V39.197c0-9.733-7.89-17.623-17.623-17.623H28.197zM89.904 67.03a4.516 4.516 0 0 1 3.194-1.323h11.247v9.033H93.098a4.516 4.516 0 0 1-3.194-7.71z" fill="#ecf0f3cc"></path>
<path fill-rule="evenodd" clip-rule="evenodd" d="M24.55 42.417a3.926 3.926 0 0 1 3.925-3.926h16.59a3.926 3.926 0 0 1 0 7.852h-16.59a3.926 3.926 0 0 1-3.926-3.926z" fill="#ecf0f3cc"></path>
</svg>