<svg width="124" height="124" viewBox="0 0 124 124" fill="none" xmlns="http://www.w3.org/2000/svg">
<path d="M84.2 29.742l-18-12.75c-1.75-1-4 0-4 2v7.5h-30c-16.5 0-30 13.5-30 30v10.75c0 16.5 13.5 30 30 30 2.75 0 5-2.25 5-5s-2.25-5-5-5c-11 0-20-9-20-20v-10.75c0-11 9-20 20-20h30v7.75c0 2 2.25 3.25 4 2l18-12.75c1.25-.75 1.25-2.75 0-3.75z" fill="#ecf0f3cc"></path>
<path d="M92.075 26.6c-2.75 0-5 2.25-5 5s2.25 5 5 5c11 0 19.75 9 19.75 19.75V67.1c0 11-9 19.75-19.75 19.75h-29.75v-7.5c0-2-2.25-3.25-4-2l-18 12.75c-1.5 1-1.5 3 0 4l18 12.75c1.75 1.25 4 0 4-2V97.1h29.75c16.5 0 29.75-13.5 29.75-29.75V56.6c.25-16.5-13.25-30-29.75-30z" fill="#ecf0f3cc"></path>
</svg>
