<svg width="119" height="28" viewBox="0 0 119 28" fill="none" xmlns="http://www.w3.org/2000/svg"><path fill-rule="evenodd" clip-rule="evenodd" d="M18 14a9 9 0 1 1-18 0 9 9 0 0 1 18 0Zm-6.457-3.052H6.495c-.135 0-.35.001-.56.1a1.062 1.062 0 0 0-.61 1.053c.019.235.13.418.201.536l.003.005 3.13 5.466a.391.391 0 0 0 .678.002l3.19-5.478.002-.005c.103-.182.148-.391.148-.583a1.132 1.132 0 0 0-.166-.593 1.036 1.036 0 0 0-.425-.39 1.245 1.245 0 0 0-.543-.113Zm-5.048.783h2.113v4.712l-2.402-4.195-.005-.008c-.08-.132-.094-.17-.097-.203a.286.286 0 0 1 .161-.28c.038-.017.091-.026.23-.026Zm2.895 4.733V11.73h2.153c.095 0 .154.013.213.04a.114.114 0 0 1 .036.026.637.637 0 0 1 .062.08c.028.054.04.107.04.167a.428.428 0 0 1-.046.198L9.39 16.464Z" fill="#fff"></path><path d="M26.536 20.976h-1.952L28.808 7.92h1.952l-4.224 13.056Z" fill="#fff" fill-opacity="0.32"></path><path d="M36.009 20V8.72h4.544c1.333 0 2.458.23 3.376.688.917.448 1.61 1.093 2.08 1.936.48.832.72 1.835.72 3.008 0 1.163-.24 2.165-.72 3.008-.47.843-1.163 1.493-2.08 1.952-.918.459-2.043.688-3.376.688h-4.544Zm2.96-2.4h1.392c1.162 0 2.021-.267 2.576-.8.565-.533.848-1.35.848-2.448 0-1.11-.283-1.925-.848-2.448-.555-.533-1.414-.8-2.576-.8h-1.392V17.6Zm13.444 2.576c-.907 0-1.69-.17-2.352-.512a3.68 3.68 0 0 1-1.536-1.456c-.363-.64-.544-1.397-.544-2.272 0-.885.181-1.643.544-2.272a3.68 3.68 0 0 1 1.536-1.456c.661-.341 1.445-.512 2.352-.512.896 0 1.674.17 2.336.512a3.651 3.651 0 0 1 1.536 1.472c.362.63.544 1.381.544 2.256 0 .864-.182 1.616-.544 2.256a3.651 3.651 0 0 1-1.536 1.472c-.662.341-1.44.512-2.336.512Zm0-2.112c.47 0 .842-.165 1.12-.496.277-.341.416-.885.416-1.632 0-.747-.139-1.285-.416-1.616-.278-.341-.65-.512-1.12-.512-.48 0-.859.17-1.136.512-.278.33-.416.87-.416 1.616 0 .747.138 1.29.416 1.632.277.33.656.496 1.136.496ZM58.223 20v-5.92a19.38 19.38 0 0 0-.127-2.208h2.752l.16 1.408h-.176c.234-.49.581-.875 1.04-1.152.458-.288.997-.432 1.616-.432.597 0 1.104.144 1.52.432.426.277.736.72.928 1.328h-.272c.266-.555.65-.987 1.152-1.296a3.247 3.247 0 0 1 1.712-.464c.928 0 1.621.283 2.08.848.458.555.688 1.424.688 2.608V20h-2.864v-4.752c0-.501-.075-.853-.224-1.056-.15-.213-.39-.32-.72-.32-.416 0-.742.15-.976.448-.224.299-.336.71-.336 1.232V20h-2.848v-4.752c0-.501-.08-.853-.24-1.056-.15-.213-.384-.32-.704-.32-.416 0-.742.15-.976.448-.224.299-.336.71-.336 1.232V20h-2.848Zm17.982.176c-.704 0-1.323-.165-1.856-.496-.533-.341-.955-.832-1.264-1.472-.299-.64-.448-1.397-.448-2.272 0-.885.15-1.643.448-2.272.31-.64.73-1.125 1.264-1.456.533-.341 1.152-.512 1.856-.512.63 0 1.195.15 1.696.448.512.299.848.688 1.008 1.168h-.16l.176-1.44h2.736l-.096 1.104a19.38 19.38 0 0 0-.032 1.104V20h-2.816l-.032-1.376h.192c-.16.47-.496.848-1.008 1.136a3.38 3.38 0 0 1-1.664.416Zm.912-2.112c.48 0 .87-.165 1.168-.496.299-.341.448-.885.448-1.632 0-.747-.15-1.285-.448-1.616-.299-.341-.688-.512-1.168-.512s-.87.17-1.168.512c-.299.33-.448.87-.448 1.616 0 .747.144 1.29.432 1.632.299.33.693.496 1.184.496ZM83.302 20v-8.128h2.848V20h-2.848Zm-.064-9.28V8.16h2.992v2.56h-2.992ZM87.91 20v-5.92a19.38 19.38 0 0 0-.128-2.208h2.752l.16 1.408h-.176a2.73 2.73 0 0 1 1.136-1.168 3.322 3.322 0 0 1 1.664-.416c.95 0 1.659.283 2.128.848.48.555.72 1.424.72 2.608V20H93.32v-4.72c0-.523-.09-.885-.272-1.088-.181-.213-.442-.32-.784-.32-.448 0-.81.15-1.088.448-.277.288-.416.672-.416 1.152V20h-2.848Zm13.089.176a8.81 8.81 0 0 1-2.064-.224c-.608-.16-1.125-.373-1.552-.64l.688-1.856c.416.235.88.427 1.392.576a5.63 5.63 0 0 0 1.552.224c.405 0 .699-.059.88-.176.192-.128.288-.293.288-.496a.472.472 0 0 0-.176-.384c-.117-.096-.293-.165-.528-.208l-1.728-.304c-.683-.128-1.216-.379-1.6-.752-.373-.384-.56-.88-.56-1.488 0-.555.15-1.035.448-1.44.299-.416.725-.736 1.28-.96.555-.235 1.211-.352 1.968-.352.619 0 1.205.07 1.76.208a4.22 4.22 0 0 1 1.472.656l-.736 1.808a4.383 4.383 0 0 0-1.168-.544 3.821 3.821 0 0 0-1.232-.224c-.459 0-.784.07-.976.208-.192.128-.288.288-.288.48 0 .15.053.277.16.384.107.096.277.165.512.208l1.728.304c.704.117 1.243.363 1.616.736.384.363.576.859.576 1.488 0 .587-.16 1.088-.48 1.504-.309.405-.741.72-1.296.944-.555.213-1.2.32-1.936.32Z" fill="#fff"></path></svg>