<svg width="119" height="28" viewBox="0 0 119 28" fill="none" xmlns="http://www.w3.org/2000/svg"><g clip-path="url(#ton-fanton_svg__a)" fill="#fff"><path d="M3.464 7.868 5.242 5h7.11l-1.813 2.868H7.008L5.23 10.7 3.464 7.868ZM1.706 16.334 5.23 10.7h3.476l1.817 2.817H7.015l-1.738 2.816h-3.57ZM6.573 17.598l1.959-2.813h4.787l2.055 2.844h-3.232l-2.29 5.373H6.383l2.292-5.389-2.102-.015Z"></path></g><path d="M25.04 20V8.72h7.92v2.256H28v2.288h4.592v2.256H28V20h-2.96Zm7.108 0 5.28-11.28h2.4L45.14 20h-2.96l-1.36-3.104 1.136.816h-6.624l1.12-.816L35.108 20h-2.96Zm6.464-8.24-1.872 4.464-.448-.752h4.688l-.4.752-1.888-4.464h-.08ZM45.837 20V8.72h2.176l5.712 7.088h-.464V8.72h2.736V20H53.82l-5.68-7.088h.464V20h-2.768Zm14.81 0v-8.896h-3.424V8.72h9.808v2.384h-3.424V20h-2.96Zm6.667-5.648c0-1.173.23-2.192.688-3.056a4.884 4.884 0 0 1 1.968-2.032c.853-.48 1.862-.72 3.024-.72 1.174 0 2.187.24 3.04.72a4.883 4.883 0 0 1 1.968 2.032c.47.864.704 1.883.704 3.056 0 1.163-.234 2.181-.704 3.056a4.986 4.986 0 0 1-1.968 2.048c-.853.48-1.867.72-3.04.72-1.162 0-2.17-.24-3.024-.72a5.125 5.125 0 0 1-1.968-2.048c-.459-.875-.688-1.893-.688-3.056Zm3.088 0c0 1.056.213 1.883.64 2.48.427.587 1.078.88 1.952.88.875 0 1.53-.293 1.968-.88.438-.597.656-1.424.656-2.48s-.218-1.877-.656-2.464c-.437-.587-1.093-.88-1.968-.88-.874 0-1.525.293-1.952.88-.427.576-.64 1.397-.64 2.464ZM80.478 20V8.72h2.175l5.712 7.088h-.463V8.72h2.736V20H88.46l-5.68-7.088h.465V20h-2.768Z" fill="#fff"></path><defs><clipPath id="ton-fanton_svg__a"><path fill="#fff" d="M1.707 5h13.667v18H1.707z"></path></clipPath></defs></svg>