<svg width="121" height="28" viewBox="0 0 121 28" fill="none" xmlns="http://www.w3.org/2000/svg"><g clip-path="url(#ton-fragment_svg__a)"><g clip-path="url(#ton-fragment_svg__b)"><path fill-rule="evenodd" clip-rule="evenodd" d="m.43 8.326 7.643 3.594a.391.391 0 0 1 .225.355l-.027 8.338a.391.391 0 0 1-.721.21L-.066 8.89a.391.391 0 0 1 .496-.564Zm17.652.187a.391.391 0 0 1-.024.377l-7.616 11.932a.391.391 0 0 1-.721-.209l-.027-8.338c0-.152.087-.29.225-.355l7.643-3.594a.391.391 0 0 1 .52.187Zm-.749-2.025a.26.26 0 0 1 .104.5L9.07 10.602a.26.26 0 0 1-.208 0L.547 6.988a.26.26 0 0 1 .104-.5h16.682Z" fill="#fff"></path></g></g><path d="M26 20.805h2.139v-5.93H30.9V12.93h-2.761V9.138h3.52V7.194H26v13.61ZM32.842 20.805h2.14V14.97h.738c.972 0 1.342.409 1.342 1.673v2.489c0 1.108.077 1.322.194 1.672h2.178c-.214-.506-.233-.992-.233-1.653V16.76c0-1.536-.35-2.547-1.42-2.878v-.038c.953-.39 1.4-1.284 1.4-2.684v-.836c0-2.1-.953-3.13-3.17-3.13h-3.169v13.61Zm2.14-7.778V9.138h.971c.759 0 1.09.428 1.09 1.4v1.05c0 1.089-.487 1.439-1.284 1.439h-.778ZM40.263 20.805h1.984l.389-2.664h2.43v-.04l.39 2.704h2.138L45.377 7.194H42.48l-2.217 13.61Zm2.625-4.511.934-6.728h.039l.952 6.728h-1.925ZM51.776 21c2.1 0 3.19-1.244 3.19-3.422v-4.453h-3.092v1.944h1.07v2.664c0 .973-.429 1.323-1.11 1.323-.68 0-1.108-.35-1.108-1.323v-7.447c0-.972.428-1.342 1.109-1.342.68 0 1.108.37 1.108 1.342v1.303h2.022v-1.167C54.965 8.244 53.876 7 51.776 7s-3.188 1.244-3.188 3.422v7.156c0 2.178 1.088 3.422 3.188 3.422ZM56.5 20.805h1.867V10.499h.039l1.555 10.306h1.79l1.555-10.306h.039v10.306h2.022V7.194h-3.053l-1.36 9.741h-.04l-1.36-9.741H56.5v13.61ZM67.113 20.805h5.833V18.86h-3.695v-4.18h2.937v-1.945H69.25V9.138h3.695V7.194h-5.833v13.61ZM74.323 20.805h1.906v-9.936h.039l2.567 9.936h2.197V7.194h-1.906v8.147h-.039l-2.08-8.147h-2.684v13.61ZM84.452 20.805h2.139V9.138h2.236V7.194h-6.611v1.944h2.236v11.667Z" fill="#fff"></path><defs><clipPath id="ton-fragment_svg__a"><path fill="#fff" d="M0 5h18v18H0z"></path></clipPath><clipPath id="ton-fragment_svg__b"><path fill="#fff" d="M-.457 6.498h18.913v15H-.457z"></path></clipPath></defs></svg>