<svg width="79" height="28" viewBox="0 0 79 28" fill="none" xmlns="http://www.w3.org/2000/svg"><path fill-rule="evenodd" clip-rule="evenodd" d="M18 9.725A4.725 4.725 0 0 0 13.275 5h-8.55A4.725 4.725 0 0 0 0 9.725v8.55A4.725 4.725 0 0 0 4.725 23h8.55A4.725 4.725 0 0 0 18 18.275v-8.55Zm-2.67 1.102a.663.663 0 0 0 0-1.327h-5.004a.663.663 0 0 0 0 1.327h5.004Zm-1.22 2.35a.663.663 0 0 1-.663.663h-3.121a.663.663 0 1 1 0-1.327h3.121c.367 0 .664.297.664.663Zm-2.428 3.683a.663.663 0 1 0 0-1.327h-1.356a.663.663 0 1 0 0 1.327h1.356ZM7.673 9.5a.663.663 0 0 1 0 1.327H2.67a.663.663 0 0 1 0-1.327h5.004Zm.662 3.676a.663.663 0 0 0-.663-.663H4.55a.663.663 0 1 0 0 1.327h3.122a.663.663 0 0 0 .663-.664Zm-.661 2.357a.663.663 0 1 1 0 1.327H6.316a.663.663 0 1 1 0-1.327h1.358Zm1.197 4.33a.704.704 0 0 0 .26 0 .703.703 0 0 0 .238-.1.595.595 0 0 0 .183-.184.616.616 0 0 0 .099-.237.614.614 0 0 0 0-.26.65.65 0 0 0-.181-.34.715.715 0 0 0-.215-.142.654.654 0 0 0-.623.06.655.655 0 0 0-.244.298.62.62 0 0 0-.038.384.615.615 0 0 0 .182.339.655.655 0 0 0 .339.182Z" fill="#fff"></path><path d="M25.104 20h2.24v-7.264L30.352 20h1.696l2.992-7.264V20h2.24V8.832h-2.528L31.2 17.136l-3.552-8.304h-2.544V20Zm18.327.144c2.576 0 4.624-1.792 4.624-4.576 0-2.8-2-4.576-4.56-4.576-2.56 0-4.56 1.776-4.56 4.576 0 2.784 1.936 4.576 4.496 4.576Zm0-1.952c-1.2 0-2.224-.864-2.224-2.624 0-1.776 1.072-2.624 2.256-2.624 1.184 0 2.288.848 2.288 2.624 0 1.76-1.136 2.624-2.32 2.624Zm8.507-5.76V8.16h-2.24V20h2.24v-1.264c.544.768 1.536 1.408 2.928 1.408 2.272 0 4.048-1.84 4.048-4.608s-1.776-4.544-4.048-4.544c-1.344 0-2.384.624-2.928 1.44Zm4.688 3.104c0 1.68-1.136 2.64-2.352 2.64-1.2 0-2.336-.928-2.336-2.608 0-1.68 1.136-2.608 2.336-2.608 1.216 0 2.352.896 2.352 2.576Zm5.052-5.456c.784 0 1.376-.576 1.376-1.312 0-.736-.593-1.312-1.377-1.312-.8 0-1.376.576-1.376 1.312 0 .736.576 1.312 1.377 1.312ZM60.541 20h2.24v-8.864h-2.24V20Zm4.453 0h2.24V8.16h-2.24V20Zm12.469-2.784h-2.416c-.288.592-.816 1.072-1.776 1.072-1.12 0-2.016-.736-2.128-2.048h6.48c.048-.288.064-.576.064-.864 0-2.64-1.808-4.384-4.368-4.384-2.624 0-4.448 1.776-4.448 4.576 0 2.784 1.872 4.576 4.448 4.576 2.192 0 3.664-1.296 4.144-2.928Zm-4.208-4.384c1.152 0 2.08.736 2.112 1.904H71.16c.176-1.216 1.024-1.904 2.096-1.904Z" fill="#FCFCFF"></path></svg>