<svg width="60" height="28" viewBox="0 0 60 28" fill="none" xmlns="http://www.w3.org/2000/svg"><rect x="2.778" y="12.222" width="12.444" height="9.778" rx="2.667" fill="#fff" stroke="#fff" stroke-width="1.333"></rect><path d="M5 12.222V10a4 4 0 0 1 8 0v2.222" stroke="#fff" stroke-width="1.541"></path><path d="M8.995 17.012a.84.84 0 1 0 0-1.679.84.84 0 0 0 0 1.68Z" fill="#6D77FF" stroke="#6F79FF" stroke-width="1.333"></path><path d="M9 16.667v2.222" stroke="#6E79FF" stroke-width="1.333" stroke-linecap="round"></path><path d="M28.8 20 23.68 8.72h3.168l3.648 8.576h-.88l3.632-8.576h3.056L31.184 20H28.8Zm8.224 0V8.72h5.536c1.302 0 2.283.32 2.944.96.662.63.992 1.488.992 2.576 0 1.077-.33 1.936-.992 2.576-.661.64-1.642.96-2.944.96h-2.576V20h-2.96Zm2.96-6.48h2.192c.502 0 .875-.107 1.12-.32.246-.224.368-.539.368-.944 0-.405-.122-.72-.368-.944-.245-.224-.618-.336-1.12-.336h-2.192v2.544ZM47.962 20V8.72h2.176l5.712 7.088h-.464V8.72h2.736V20h-2.176l-5.68-7.088h.464V20h-2.768Z" fill="#fff"></path></svg>