<svg width="24" height="24" viewBox="0 0 24 24" fill="none" xmlns="http://www.w3.org/2000/svg"><path d="M4.237 11.942c4.832-2.15 8.054-3.567 9.666-4.251 4.603-1.955 5.56-2.295 6.183-2.306.137-.002.444.032.642.197a.718.718 0 0 1 .236.458c.022.132.05.432.028.666-.25 2.676-1.329 9.17-1.878 12.167-.232 1.268-.69 1.693-1.133 1.735-.962.09-1.693-.65-2.625-1.273-1.459-.977-2.283-1.585-3.7-2.537-1.636-1.101-.575-1.706.358-2.695.244-.26 4.485-4.198 4.567-4.555.01-.045.02-.211-.077-.3-.097-.087-.24-.057-.343-.033-.147.034-2.477 1.606-6.992 4.718-.661.464-1.26.69-1.797.678-.592-.013-1.73-.342-2.577-.623-1.038-.344-1.862-.526-1.79-1.111.037-.305.448-.617 1.232-.935z" fill="#fff"></path></svg>