<svg width="24" height="24" viewBox="0 0 24 24" fill="none" xmlns="http://www.w3.org/2000/svg"><path d="M20.21 8.744v.483c0 5-3.817 10.773-10.774 10.773-2.15 0-4.13-.628-5.82-1.69.29.023.603.048.893.048a7.665 7.665 0 0 0 4.71-1.619 3.748 3.748 0 0 1-3.526-2.633c.241.049.458.073.724.073.338 0 .676-.049.99-.145a3.76 3.76 0 0 1-3.043-3.696v-.048a3.72 3.72 0 0 0 1.715.483 3.793 3.793 0 0 1-1.69-3.164c0-.7.192-1.353.506-1.909a10.774 10.774 0 0 0 7.802 3.962 3.428 3.428 0 0 1-.096-.87A3.783 3.783 0 0 1 16.393 5a3.77 3.77 0 0 1 2.754 1.184 7.695 7.695 0 0 0 2.415-.918 3.903 3.903 0 0 1-1.667 2.101 7.254 7.254 0 0 0 2.174-.604 6.921 6.921 0 0 1-1.86 1.981z" fill="#fff"></path></svg>