<svg width="138" height="28" viewBox="0 0 138 28" fill="none" xmlns="http://www.w3.org/2000/svg">
<g clip-path="url(#tonkeeper_svg__a)">
<path fill-rule="evenodd" clip-rule="evenodd" d="m9.002 22.999 8.86-13.983h.001v-.001l-8.44 4.743-.42 9.24Zm0 0L.142 9.015H.14l8.44 4.743L9.002 23ZM.142 9.015l8.86 4.015 8.861-4.015L9.003 5 .14 9.015Z" fill="#fff"></path></g><g clip-path="url(#tonkeeper_svg__b)" fill="#fff"><path d="M29.865 11.053H26V8.775h10.525v2.278H32.66v9.8h-2.795v-9.8ZM41.313 20.991c-.978 0-1.858-.201-2.64-.604a4.629 4.629 0 0 1-1.812-1.708c-.437-.725-.656-1.547-.656-2.467 0-.92.219-1.743.656-2.467a4.507 4.507 0 0 1 1.812-1.691c.782-.415 1.662-.622 2.64-.622.977 0 1.851.207 2.622.622.77.402 1.375.966 1.812 1.69.437.725.655 1.548.655 2.468 0 .92-.218 1.742-.655 2.467a4.629 4.629 0 0 1-1.812 1.708c-.77.403-1.645.604-2.623.604Zm0-2.208c.69 0 1.253-.23 1.69-.69.449-.472.673-1.1.673-1.881 0-.782-.224-1.403-.673-1.864-.437-.471-1-.707-1.69-.707s-1.26.236-1.709.707c-.448.46-.672 1.082-.672 1.864s.224 1.409.672 1.88c.449.46 1.018.69 1.709.69ZM53.843 11.432c1.15 0 2.077.346 2.778 1.036.713.69 1.07 1.714 1.07 3.07v5.315h-2.692v-4.9c0-.736-.16-1.283-.483-1.64-.322-.367-.788-.551-1.397-.551-.679 0-1.22.213-1.622.638-.403.414-.604 1.035-.604 1.864v4.589h-2.692V11.57h2.571v1.088c.357-.392.8-.69 1.329-.898a4.523 4.523 0 0 1 1.742-.328ZM64.116 17.212l-1.294 1.277v2.364h-2.691V8.051h2.691v7.246l3.934-3.727h3.21L66.1 15.505l4.21 5.349h-3.262l-2.933-3.64ZM80.21 16.246c0 .035-.018.276-.053.725h-7.022c.127.575.426 1.03.897 1.363.472.334 1.059.5 1.76.5.483 0 .909-.069 1.277-.207.38-.15.73-.38 1.052-.69l1.433 1.553c-.875 1-2.151 1.501-3.83 1.501-1.047 0-1.974-.201-2.779-.604-.805-.414-1.426-.983-1.863-1.708-.437-.725-.656-1.547-.656-2.467 0-.909.213-1.726.639-2.45a4.53 4.53 0 0 1 1.777-1.708c.759-.415 1.604-.622 2.536-.622.909 0 1.731.196 2.467.587a4.211 4.211 0 0 1 1.726 1.691c.425.725.638 1.57.638 2.536Zm-4.815-2.778c-.61 0-1.121.173-1.535.518-.414.345-.667.817-.76 1.415h4.573c-.092-.587-.345-1.053-.76-1.398-.413-.356-.92-.535-1.518-.535ZM91.094 16.246c0 .035-.017.276-.052.725H84.02c.126.575.425 1.03.897 1.363.472.334 1.058.5 1.76.5.483 0 .908-.069 1.277-.207.38-.15.73-.38 1.052-.69l1.432 1.553c-.874 1-2.15 1.501-3.83 1.501-1.047 0-1.973-.201-2.778-.604-.805-.414-1.426-.983-1.863-1.708-.438-.725-.656-1.547-.656-2.467 0-.909.213-1.726.638-2.45a4.53 4.53 0 0 1 1.778-1.708c.759-.415 1.604-.622 2.536-.622.908 0 1.73.196 2.467.587a4.21 4.21 0 0 1 1.725 1.691c.426.725.639 1.57.639 2.536Zm-4.814-2.778c-.61 0-1.121.173-1.536.518-.414.345-.667.817-.759 1.415h4.573c-.093-.587-.346-1.053-.76-1.398-.414-.356-.92-.535-1.518-.535ZM98.372 11.432c.863 0 1.645.202 2.347.604a4.19 4.19 0 0 1 1.674 1.674c.402.713.603 1.547.603 2.502 0 .954-.201 1.794-.603 2.519a4.338 4.338 0 0 1-1.674 1.673c-.702.392-1.484.587-2.347.587-1.184 0-2.116-.374-2.795-1.122V24.2h-2.691V11.57h2.57v1.07c.668-.805 1.64-1.208 2.916-1.208Zm-.465 7.35c.69 0 1.253-.23 1.69-.69.449-.471.673-1.098.673-1.88 0-.782-.224-1.403-.673-1.864-.437-.471-1-.707-1.69-.707s-1.26.236-1.709.707c-.437.46-.655 1.082-.655 1.864s.218 1.409.655 1.88c.449.46 1.018.69 1.709.69ZM113.891 16.246c0 .035-.017.276-.052.725h-7.022c.126.575.425 1.03.897 1.363.472.334 1.058.5 1.76.5.483 0 .909-.069 1.277-.207.379-.15.73-.38 1.052-.69l1.432 1.553c-.874 1-2.151 1.501-3.83 1.501-1.047 0-1.973-.201-2.778-.604-.805-.414-1.426-.983-1.863-1.708-.437-.725-.656-1.547-.656-2.467 0-.909.213-1.726.638-2.45a4.536 4.536 0 0 1 1.778-1.708c.759-.415 1.604-.622 2.536-.622.909 0 1.731.196 2.467.587a4.21 4.21 0 0 1 1.725 1.691c.426.725.639 1.57.639 2.536Zm-4.814-2.778c-.61 0-1.121.173-1.535.518-.415.345-.668.817-.76 1.415h4.573c-.092-.587-.345-1.053-.76-1.398-.414-.356-.92-.535-1.518-.535ZM118.254 12.796a2.998 2.998 0 0 1 1.294-1.018c.552-.23 1.184-.346 1.898-.346v2.485a9.778 9.778 0 0 0-.604-.034c-.771 0-1.375.218-1.812.655-.437.426-.656 1.07-.656 1.933v4.382h-2.691V11.57h2.571v1.226Z"></path></g><defs><clipPath id="tonkeeper_svg__a"><path fill="#fff" d="M0 5h18v18H0z"></path></clipPath><clipPath id="tonkeeper_svg__b"><path fill="#fff" d="M26 0h112v28H26z"></path></clipPath></defs>
</svg>