<svg width="119" height="28" viewBox="0 0 119 28" fill="none" xmlns="http://www.w3.org/2000/svg"><g clip-path="url(#ton-wallet_svg__a)"><g clip-path="url(#ton-wallet_svg__b)" fill="#fff"><path d="M15.575 18.121c.193.002.386-.014.577-.045a3.897 3.897 0 0 1-3.673 2.63H4.257A3.892 3.892 0 0 1 .364 16.81v-6.04A3.9 3.9 0 0 1 4.257 6.87h8.222a3.891 3.891 0 0 1 3.673 2.63 3.411 3.411 0 0 0-.578-.045H12.33a2.983 2.983 0 0 0-2.985 2.982v2.689a2.99 2.99 0 0 0 2.985 2.981l3.245.013Z"></path><path d="M10.383 12.453v2.689a1.95 1.95 0 0 0 1.947 1.948h3.245a2.426 2.426 0 0 0 2.427-2.429V12.94a2.437 2.437 0 0 0-2.427-2.436H12.33a1.946 1.946 0 0 0-1.947 1.949Zm2.654 2.643a1.298 1.298 0 0 1-.918-2.217 1.297 1.297 0 0 1 2.216.918 1.3 1.3 0 0 1-1.298 1.3Z"></path></g></g><g clip-path="url(#ton-wallet_svg__c)"><path d="M26.367 21h2.853l1.62-10.294h.049L32.509 21h2.852l2.367-14h-2.425l-1.416 10.625h-.059l-1.65-10.623H29.54L27.9 17.625h-.048L26.426 7.002H24L26.367 21Zm11.196 0h2.542l2.29-11.292h.834V7h-2.367l-3.299 14Zm1.95-3.153h5.812l-.428-1.97h-4.956l-.428 1.97ZM44.743 21h2.541L43.986 7h-1.543v2.708L44.743 21Zm3.744 0h6.802v-2.154H50.98V7h-2.494v14Zm8.052 0h6.802v-2.154h-4.308V7H56.54v14Zm8.063 0h6.956v-2.154h-4.473v-3.929h4.23V12.89h-4.23V9.154h4.473V7.001h-6.956V21ZM75.4 21h2.483V9.154h2.794V7.001h-8.09v2.153H75.4V21Z" fill="#fff"></path></g><defs><clipPath id="ton-wallet_svg__a"><path fill="#fff" d="M0 5h18v18H0z"></path></clipPath><clipPath id="ton-wallet_svg__b"><path fill="#fff" d="M0 6.875h18V20.75H0z"></path></clipPath><clipPath id="ton-wallet_svg__c"><path fill="#fff" d="M24 0h95v28H24z"></path></clipPath></defs></svg>